<svg width="255" height="245" viewBox="0 0 255 245" fill="none" xmlns="http://www.w3.org/2000/svg">
<path d="M126.963 20.8794C130.594 19.1985 134.558 21.5736 137.346 23.8194C140.61 26.5212 140.06 31.4144 137.571 34.4361C139.482 36.6275 142.576 37.6347 143.854 40.391C145.146 43.0655 144.439 46.0804 143.453 48.721C145.275 50.1773 147.002 51.7903 148.226 53.7911C156.692 67.1504 165.124 80.5301 173.577 93.8962C177.358 99.7422 180.744 105.928 185.572 110.992C188.081 112.734 190.686 114.408 192.705 116.749C195.16 119.274 196.194 122.725 198.077 125.637C202.069 132.103 206.156 138.513 210.222 144.938C211.888 147.449 212.004 150.607 213.602 153.152C216.682 158.617 219.579 164.204 222.986 169.486C229.017 177.04 231.594 186.533 235.436 195.258C236.647 198.525 237.891 201.975 237.306 205.521C236.212 208.441 231.819 209.346 229.718 207.011C226.046 202.765 224.346 197.307 222.068 192.284C217.695 185.581 214.159 178.067 208.087 172.691C207.393 173.392 206.672 174.066 206.081 174.848C207.849 181.307 210.834 187.398 212.031 194.02C212.446 197.912 213.139 201.764 213.785 205.623C214.989 210.23 216.478 214.872 216.383 219.69C216.444 222.882 213.241 225.706 210.093 225.352C207.876 225.257 206.305 223.236 205.7 221.255C203.952 215.675 203.259 209.829 201.831 204.167C180.554 204.167 159.276 204.167 138.006 204.167C135.755 204.031 133.742 205.147 131.804 206.127C128.432 207.889 124.583 208.529 121.285 210.462C116.62 213.096 111.588 215.117 107.263 218.322C103.36 221.044 98.464 221.521 93.84 221.187C88.1892 220.942 82.4976 222.181 76.8876 221.14C74.5756 219.642 73.2224 217.124 71.2436 215.253C69.1356 212.721 65.4432 212.612 63.0632 210.455C61.8256 209.019 62.9272 207.066 63.3352 205.514C56.3312 206.12 49.5788 203.888 42.7992 202.479C37.264 200.852 31.2596 200.594 26.0848 197.858C23.0792 196.279 22.848 192.311 24.2964 189.569C21.7328 188.813 18.9924 187.262 18.326 184.465C17.816 182.368 18.8768 180.232 20.6516 179.109C22.0728 178.523 23.63 178.503 25.1328 178.414C24.9016 176.005 25.0036 173.031 27.4584 171.759C31.2256 170.479 35.2376 170.227 39.134 169.506C39.1408 168.192 39.2224 166.893 39.3652 165.593C40.4056 164.497 41.5752 163.469 42.2552 162.095C50.5104 146.517 58.786 130.946 67.082 115.388C68.7412 112.543 69.5844 109.331 70.89 106.33C73.2972 100.668 75.7996 95.0396 78.7576 89.6428C80.4712 86.4442 83.7828 84.1847 84.626 80.5233C86.2988 72.064 88.1076 63.6251 89.6648 55.1522C89.9912 51.3955 89.1684 47.4483 90.8276 43.9094C91.8816 41.1123 94.0916 38.9278 96.5532 37.3285C100.864 34.5041 104.19 30.5161 108.032 27.1405C110.35 24.9628 112.982 22.7169 116.28 22.3971C117.314 22.6421 118.238 23.1933 119.19 23.6493C121.74 22.608 124.372 21.8118 126.963 20.8794ZM120.299 24.5408C121.19 25.303 122.08 26.0585 122.978 26.8071C124.324 25.7862 125.746 24.8266 127.384 24.3571C126.269 25.4936 124.991 26.4532 123.726 27.4196C126.031 29.2026 128.357 31.1626 131.26 31.8704C133.328 32.3332 135.395 33.4221 137.557 32.898C135.898 31.0741 134.008 29.4544 132.471 27.5216C134.749 28.3179 136.15 30.3732 137.931 31.8704C138.196 30.38 138.897 28.7739 138.176 27.2971C136.87 23.8875 133.158 22.3086 129.873 21.4987C126.582 22.0296 123.488 23.5472 120.299 24.5408ZM101.606 34.9465C98.6748 37.941 94.2752 39.4926 92.412 43.4603C90.644 46.618 91.1268 50.3203 91.0452 53.7775C90.406 59.7528 88.7876 65.5579 87.7132 71.4515C87.0264 74.8271 86.5504 78.2435 85.6324 81.5646C84.4764 85.2192 81.1376 87.5467 79.4648 90.9222C76.1396 97.299 73.1544 103.866 70.584 110.583C69.2512 114.497 67.0344 118.008 65.1712 121.677C57.902 135.315 50.6396 148.967 43.3976 162.619C50.9524 160.441 58.786 159.155 66.6468 158.876C71.876 158.488 77.1868 158.706 82.3208 157.481C84.8708 156.854 87.5092 156.637 90.0592 156.017C91.1948 154.609 91.902 152.921 92.7656 151.342C97.852 141.698 103.034 132.103 108.1 122.452C110.548 115.987 112.581 109.358 115.28 102.988C115.824 101.512 117.089 100.518 118.252 99.538C114.641 98.0272 110.956 95.9583 108.759 92.61C112.125 94.8626 115.233 97.5304 118.973 99.2046C122.726 97.1493 126.419 94.9511 129.894 92.4398C134.735 88.513 136.286 82.0273 140.672 77.7194C137.496 78.9512 134.123 80.5573 130.642 79.9721C127.711 79.2507 127.078 75.8955 126.745 73.3435C123.658 72.2205 121.101 70.1108 118.68 67.9535C118.939 70.9547 119.469 73.956 119.354 76.9776C119.313 77.6514 118.612 79.5842 118.048 78.1482C118.007 73.8539 117.232 69.6004 117.32 65.2993C117.089 61.4473 114.505 58.344 112.86 55.0161C113.356 52.8383 113.526 50.5925 112.356 48.5848C111.588 48.8094 110.826 49.0272 110.058 49.2518C108.1 51.9536 104.366 51.4568 101.442 51.5589C101.408 51.3343 101.347 50.8919 101.32 50.6673C104.101 50.8987 106.889 50.5176 109.514 49.558C107.998 49.1021 106.454 48.6937 105.053 47.9315C107.134 48.02 109.201 48.3058 111.282 48.3126C111.187 47.6457 110.996 46.3186 110.901 45.6517C111.683 44.8554 112.608 44.2225 113.492 43.5351C112.397 41.3641 111.826 38.8121 112.88 36.5118C113.111 38.6964 113.227 40.9218 114.063 42.9907C114.628 42.5551 115.199 42.1264 115.77 41.6976C114.58 39.9622 114.294 37.8457 114.818 35.8244C115.348 37.5394 115.641 39.3157 116.069 41.0579C120.741 42.5007 125.569 44.6172 130.56 43.4739C134.239 42.7933 137.068 39.6219 137.652 35.9605C136.156 37.2604 134.98 39.2272 132.933 39.7036C131.233 39.7717 129.615 38.7032 128.568 37.4237C127.371 35.9469 128.078 33.9529 128.017 32.2447C123.957 29.7062 120.544 26.3103 116.627 23.588C115.437 25.1533 114.818 27.0248 114.58 28.9644L113.764 28.7603C114.097 27.0316 114.58 25.3371 115.212 23.6969C109.725 26.1265 106.08 31.1422 101.606 34.9465ZM128.989 32.6939C128.316 34.824 128.833 37.4782 131.138 38.3221C133.64 39.8465 135.476 36.7636 136.864 35.1166C134.327 34.0346 131.634 33.4289 128.989 32.6939ZM139.08 37.2808C137.965 39.4041 136.891 41.7112 134.844 43.1064C132.818 44.624 130.261 45.0732 127.799 45.2637C126.371 46.6385 125.154 48.3943 123.284 49.1769C120.319 50.048 117.178 49.7214 114.165 49.3471C114.784 51.5725 115.845 53.6618 116.253 55.9485C115.546 55.0569 114.852 54.1586 114.158 53.2603C114.226 53.7162 114.376 54.6418 114.444 55.0978C116.6 56.8808 118.918 58.4529 121.094 60.2155C121.366 59.8957 121.638 59.5758 121.91 59.256C120.333 57.4116 120.027 54.7507 121.203 52.6341C121.366 54.1041 121.271 55.6082 121.57 57.0714C122.257 58.4801 123.345 59.6439 124.182 60.971C123.624 60.5898 122.516 59.8344 121.958 59.4533C122.087 59.848 122.346 60.6443 122.468 61.039C123.835 61.1003 125.365 61.5018 126.48 60.4401C131.199 57.0305 135.85 53.5053 140.42 49.8915C143.031 48.0608 143.997 44.345 142.909 41.405C142.27 39.5471 140.536 38.4514 139.08 37.2808ZM113.689 45.1753C114.288 46.1621 114.866 47.1625 115.43 48.1765C117.919 48.2037 120.489 48.544 122.91 47.8158C124.052 47.1353 124.964 46.1485 125.936 45.2569C122.828 44.8078 119.891 43.7121 116.892 42.8546C115.634 43.3105 114.73 44.3722 113.689 45.1753ZM112.418 46.1076C111.908 46.9583 113.213 48.1697 113.995 47.5096C114.478 46.6725 113.193 45.3998 112.418 46.1076ZM125.705 62.5158C122.074 63.3393 119.054 60.3653 116.307 58.4189C116.974 59.9501 117.987 61.2364 119.503 61.9782L118.238 62.1347C118.585 63.5162 118.558 65.0407 119.156 66.3405C121.523 68.811 124.311 70.9955 127.575 72.1321C125.882 70.1653 123.93 68.3142 122.93 65.8573C124.896 67.4294 126.398 69.4915 127.738 71.6012C132.722 69.0968 137.591 66.3541 142.399 63.5298C143.888 62.5703 145.751 61.7332 146.268 59.8616C144.752 58.5482 143.31 57.0646 142.623 55.125C144.208 56.3432 145.377 57.9697 146.588 59.5418C146.812 58.0854 147.247 56.6358 147.172 55.1522C146.628 52.7635 144.473 51.3003 142.732 49.7962C137.163 54.1654 131.696 58.7455 125.705 62.5158ZM148.648 56.7311C148.199 58.5005 147.648 60.2428 146.928 61.9169C148.199 63.5843 149.641 65.2857 149.988 67.4294C150.504 70.0632 149.26 72.8943 147.023 74.3507C143.84 76.2903 141.107 78.9444 138.972 81.9933C136.605 86.1787 134.232 90.4935 130.635 93.7805C136.109 102.601 141.542 111.448 146.989 120.288C148.009 121.962 149.328 123.419 150.586 124.909C153.19 120.962 157.06 118.144 160.929 115.545C163.091 114.136 165.254 112.659 167.722 111.849C165.974 113.911 163.309 114.796 161.167 116.375C157.515 118.968 153.503 121.52 151.361 125.603C152.47 126.822 153.592 128.033 154.7 129.258C157.08 126.461 160.092 123.984 163.758 123.181C160.976 125.399 157.522 126.781 155.353 129.741C156.325 136.397 156.978 143.141 158.692 149.661C162.568 152.322 167.083 153.785 171.714 154.418C167.348 155.589 163.159 153.002 159.392 151.131C161.072 154.888 162.928 158.583 165.39 161.891C167.294 164.429 168.898 167.172 170.231 170.05C170.666 170.03 171.537 169.982 171.972 169.955C172.332 166.375 172.36 162.768 172.652 159.182C172.74 157.501 173.386 155.616 175.005 154.833C176.698 153.867 178.609 154.792 180.322 155.214C180.9 154.044 181.492 152.873 182.097 151.703C177.813 149.368 173.155 147.429 169.47 144.189C173.794 145.727 177.432 148.674 181.614 150.532C176.637 145.122 171.537 139.548 168.674 132.667C167.47 129.7 166.716 126.134 168.341 123.174C168.375 125.937 168.001 128.802 169.096 131.422C171.918 138.82 177.33 144.822 182.764 150.416C183.702 148.667 184.987 147.02 185.307 145.02C185.953 140.63 185.205 135.955 187.014 131.79C187.279 131.871 187.802 132.041 188.061 132.123C187.639 134.593 187.082 137.05 187.095 139.568C186.871 142.658 187.129 146.034 185.361 148.742C183.62 151.669 182.084 154.704 180.703 157.814C179.003 161.734 177.269 165.777 177.317 170.132C177.609 170.2 178.194 170.323 178.486 170.391C177.534 167.784 179.683 165.416 181.744 164.15C185.259 163.762 189.353 166.865 188.387 170.765C187.911 170.03 187.564 169.22 187.265 168.403C186.68 166.246 184.3 165.116 182.247 164.919C180.56 165.688 179.744 167.451 178.786 168.907C180.934 171.03 183.607 172.487 186.402 173.576C186.599 172.677 186.762 171.765 186.891 170.853C187.156 170.772 187.694 170.608 187.966 170.52L187.925 172.616C189.054 170.064 189.713 167.247 191.522 165.048C193.263 162.802 194.949 160.489 195.969 157.814C193.807 156.385 191.644 154.888 189.836 153.016C192.311 153.697 194.181 155.521 195.935 157.29C196.078 153.05 195.364 148.456 197.635 144.618C198.934 141.896 201.232 138.942 200.008 135.784C198.356 131.191 196.663 126.611 194.718 122.139C193.174 118.519 190.244 115.694 187.02 113.544C183.444 111.563 181.431 107.854 178.969 104.751C168.837 88.758 158.698 72.7718 148.648 56.7311ZM128.126 72.9692C128.479 74.6025 128.452 76.4944 129.662 77.7943C130.716 78.9376 132.437 78.8764 133.817 78.5225C138.462 77.454 142.854 75.4396 146.86 72.8875C146.016 71.6897 145.166 70.4987 144.554 69.1648C145.697 70.0972 146.703 71.1793 147.744 72.2205C148.791 69.791 146.608 67.7833 146.037 65.5511C147.152 66.64 148.05 67.9262 149.015 69.1376C148.573 66.8986 147.628 64.748 146.037 63.0807C140.08 66.3882 134.293 70.0428 128.126 72.9692ZM121.502 99.1569C119.823 100.151 117.844 100.96 116.797 102.703C112.853 110.815 111.268 119.941 106.672 127.754C101.687 137.118 96.6824 146.476 91.7456 155.868C95.6284 155.813 99.4432 154.915 103.333 155.037C114.158 154.459 124.195 159.127 134.3 162.272C136.653 162.966 138.944 164.136 141.46 164.007C149.206 163.98 156.951 163.898 164.682 163.469C161.099 157.29 156.971 151.029 156.162 143.74C155.638 139.33 154.72 134.981 154.224 130.565C151.11 126.964 147.438 123.766 145.105 119.553C139.903 111.155 134.817 102.689 129.506 94.3658C126.793 95.8835 124.27 97.7278 121.502 99.1569ZM199.376 130.088C200.219 132.545 201.491 134.92 201.797 137.527C201.613 141.372 199.009 144.448 197.662 147.919C199.349 147.844 201.035 147.755 202.722 147.905C201.096 148.661 199.288 148.695 197.54 148.824C197.431 150.158 197.322 151.492 197.2 152.826C199.471 152.465 201.654 153.309 203.776 154.01C205.754 154.711 207.876 155.405 209.236 157.113C205.217 155.534 201.253 153.649 196.908 153.173C198.961 156.16 203.517 156.038 205.612 159.189C202.858 158.018 200.335 156.364 197.533 155.289C197.37 157.358 196.908 159.393 196.064 161.298C197.703 163.082 199.362 164.919 200.43 167.124C198.444 165.79 197.166 163.708 195.609 161.938C193.82 164.3 191.971 166.634 190.57 169.261C192.263 170.636 193.372 172.514 193.95 174.603C194.752 175.447 195.548 176.318 196.336 177.183C197.588 176.985 198.852 176.829 200.131 176.781C199.043 177.305 197.934 177.775 196.806 178.19C197.159 178.945 197.52 179.694 197.873 180.449C200.212 179.605 202.497 178.598 204.918 178.013C203.102 179.871 200.437 180.313 198.098 181.184C198.404 185.002 199.016 188.779 200.029 192.475C202.205 191.311 204.415 190.011 206.958 189.909C204.836 191.277 202.422 192.066 200.219 193.278C200.355 193.781 200.627 194.789 200.763 195.292C202.912 194.693 205.061 193.911 207.332 194.074C205.333 195.095 203.109 195.524 200.94 196.014C202.055 200.253 203.374 204.446 204.122 208.774C206.842 207.535 209.766 206.549 212.792 206.657C211.643 201.601 211.16 196.422 210.215 191.331C208.529 192.053 206.815 192.781 204.966 192.91C206.489 191.842 208.236 191.195 209.991 190.617C208.427 185.091 205.986 179.844 204.68 174.243C205.904 173.385 206.985 171.269 208.699 171.765C212.52 174.528 214.955 178.693 217.559 182.539C219.851 181.055 222.401 178.156 225.332 179.707C225.644 179.585 226.277 179.354 226.59 179.231C224.767 181.919 221.932 183.614 219.164 185.172C220.864 188.065 222.802 190.821 224.325 193.829C227.004 193.244 229.52 192.087 232.213 191.57C229.996 193.393 227.14 193.999 224.414 194.605C225.984 198.504 227.705 202.424 230.302 205.773C231.819 208.073 236.348 207.1 236.246 204.126C235.974 197.967 232.757 192.488 230.608 186.847C228.405 180.749 225.604 174.787 221.585 169.669C218.219 164.279 215.24 158.665 212.167 153.105C210.705 150.641 210.603 147.626 208.95 145.251C205.727 140.215 202.518 135.172 199.376 130.088ZM80.9812 159.209C76.1668 160.067 71.264 160.06 66.3952 160.189C66.4768 162.762 66.3884 165.395 65.5724 167.852C65.1236 165.321 65.5588 162.768 65.9328 160.257C58.004 160.815 50.0072 161.863 42.4728 164.49C40.4736 165.184 40.2016 167.43 40.222 169.254C45.832 169.608 51.4964 169.935 57.052 168.88C63.2196 167.798 69.462 169.771 75.6092 168.825C77.316 167.247 77.3976 164.443 79.2812 162.918C78.7372 165.014 77.7648 166.954 76.9488 168.955C76.3504 169.39 75.7588 169.833 75.1672 170.282C73.27 170.459 71.366 170.479 69.462 170.411C69.0404 170.799 68.6324 171.201 68.2176 171.602L69.2172 171.847C69.0268 172.95 68.9248 174.072 68.6732 175.161C68.204 173.562 67.9796 171.895 68.1836 170.234C64.906 170.214 61.642 169.839 58.3644 169.935C58.276 171.983 58.072 174.018 57.97 176.067C57.7796 176.271 57.3988 176.672 57.2084 176.876C57.2356 174.624 57.2764 172.371 57.4328 170.125C51.034 171.806 44.4312 170.445 37.944 170.99C34.7548 171.425 31.5248 171.847 28.4376 172.773C26.0508 173.576 26.146 176.529 26.5472 178.551C35.1288 179 43.7308 179.143 52.3192 179.374C57.086 179.565 61.9072 179.946 66.6332 179.075C68.2448 178.816 69.9108 178.455 71.5224 178.932C71.2572 180.565 69.4552 180.374 68.238 180.735C68.102 182.103 67.966 183.485 67.5648 184.812C67.286 183.382 67.4084 181.926 67.558 180.497C59.1532 181.947 50.6464 180.32 42.1872 180.694C36.0332 181.075 29.8792 180.422 23.7728 179.762C21.4948 179.36 19.2168 181.395 19.4548 183.702C19.958 186.608 23.0452 188.385 25.8332 188.289C29.5324 188.167 33.1228 189.16 36.7472 189.752C42.058 190.644 47.4572 190.481 52.8156 190.869C58.4324 191.325 64.0152 190.079 69.6388 190.365C69.5368 192.958 70.3528 195.36 71.2096 197.769C69.8292 196.517 69.258 194.707 68.6596 192.999C59.7924 193.176 50.9524 192.264 42.0988 192.005C36.7064 191.474 31.3616 190.12 25.942 189.977C23.7252 191.815 24.378 195.673 26.9144 196.885C30.6204 198.79 34.816 199.307 38.828 200.233C44.4924 201.581 50.1568 202.935 55.8824 203.99C59.4592 204.629 63.1244 204.242 66.6332 203.404C70.822 203.003 74.902 204.459 79.0228 204.977C77.0372 203.799 74.7048 203.166 73.0252 201.519C75.0448 202.037 76.976 202.86 78.7984 203.874C80.2468 204.697 81.396 206.086 83.0824 206.487C85.7208 207.059 88.4476 206.63 91.12 206.95C91.392 207.216 91.9428 207.746 92.2148 208.012C88.5904 208.447 84.7552 208.631 81.2872 207.304C77.6628 206.059 73.8684 205.419 70.0808 204.874C68.5984 204.759 66.9324 204.364 65.586 205.215C64.3348 206.242 63.5324 207.971 63.9132 209.604C65.8308 210.938 68.0952 211.605 70.1488 212.68C73.1816 214.532 74.6504 218.104 77.5948 220.044C84.1364 221.085 90.7324 219.316 97.2876 220.01C101.884 220.153 106.039 217.907 109.609 215.232C115.784 212.013 121.768 208.264 128.472 206.215C130.73 205.453 132.709 204.031 134.994 203.336C137.754 202.547 140.658 202.819 143.494 202.785C162.765 202.785 182.036 202.799 201.314 202.778C199.614 196.231 197.445 189.739 196.88 182.967C196.69 180.905 195.758 179.013 194.636 177.319C194.684 180.327 195.745 183.498 194.453 186.391C192.664 189.439 188.312 191.08 185.205 189.017C183.192 187.99 182.213 185.887 181.587 183.838C177.704 185.336 173.522 182.92 171.639 179.503C170.714 176.938 170.483 174.175 169.551 171.609C168.32 169.309 167.117 166.981 165.75 164.749C157.631 164.851 149.505 165.069 141.386 165.3C139.325 165.402 137.414 164.497 135.476 163.959C133.532 169.275 132.974 175.093 130.465 180.184C131.192 174.542 133.232 169.166 134.654 163.68C124.841 160.604 115.165 156.174 104.693 156.119C96.7164 156.385 88.774 157.508 80.9812 159.209ZM173.4 172.208C173.516 173.378 172.89 174.345 171.972 175.018C171.945 173.569 171.972 172.126 172.006 170.677L171.013 170.697C171.639 173.433 172.006 176.243 172.944 178.898C174.515 181.824 178.146 183.845 181.39 182.375C181.404 180.347 181.41 178.319 181.472 176.298C179.391 175.338 177.473 173.848 176.65 171.636C175.379 168.968 176.263 166.015 176.936 163.32C175.188 161.584 174.712 159.189 174.4 156.848C173.645 161.931 173.645 167.083 173.4 172.208ZM175.447 157.589C175.685 159.291 176.181 160.945 177.086 162.421C177.97 160.761 178.677 159.019 179.384 157.283C178.072 157.365 176.752 157.467 175.447 157.589ZM177.956 171.636C179.547 173.957 182.111 175.468 185.001 174.91C182.709 173.759 180.098 172.861 178.663 170.574C178.418 170.922 178.187 171.275 177.956 171.636ZM182.9 176.563C182.845 179.428 182.566 182.423 183.552 185.172C184.409 187.534 187.014 188.807 189.448 188.521C189.36 188.126 189.183 187.337 189.094 186.935C187.911 187.316 186.687 187.507 185.436 187.5L185.504 186.602C187.598 186.663 189.985 185.935 191.44 187.881C192.923 186.411 194.106 184.526 193.657 182.334C193.059 178.333 193.739 173.685 190.794 170.452C189.088 173.46 186.483 176.08 182.9 176.563ZM222.822 180.014C221.17 181.028 219.477 182.015 218.049 183.342C218.226 183.6 218.586 184.131 218.763 184.397C220.714 183.444 222.448 182.123 224.264 180.953C223.781 180.633 223.298 180.32 222.822 180.014ZM204.197 209.373C205.428 213.824 205.571 218.71 207.883 222.78C210.168 225.856 215.104 223.161 215.227 219.799C215.125 215.45 214.05 211.176 212.813 207.025C209.896 207.651 207.033 208.468 204.197 209.373Z" fill="#88A3CF" fill-opacity="0.5"/>
<path d="M136.796 42.7117C138.509 44.3926 139.862 46.4275 140.814 48.6189C138.836 47.1829 137.523 45.0188 136.796 42.7117Z" fill="#88A3CF" fill-opacity="0.5"/>
<path d="M96.7096 89.9695C100.531 92.3786 104.142 95.1145 108.134 97.2514C110.18 98.4424 112.404 99.3612 114.247 100.892C111.778 100.464 109.664 99.0549 107.515 97.8639C104.407 96.0264 101.272 94.2025 98.3824 92.0248C97.5936 91.5416 97.1924 90.7113 96.7096 89.9695Z" fill="#88A3CF" fill-opacity="0.5"/>
<path d="M87.5568 91.0311C90.0388 92.4875 92.0516 94.604 94.452 96.1897C96.7776 97.966 99.5792 99.1434 101.578 101.348C98.6952 100.355 96.2812 98.422 93.7924 96.7342C91.5212 95.0736 89.0324 93.5015 87.5568 91.0311Z" fill="#88A3CF" fill-opacity="0.5"/>
<path d="M183.967 145.768C183.722 140.623 183.26 134.947 185.783 130.265C185.558 132.926 184.797 135.526 184.729 138.214C184.47 140.725 184.899 143.359 183.967 145.768Z" fill="#88A3CF" fill-opacity="0.5"/>
<path d="M179.833 131.082C180.465 133.511 180.506 136.036 181.064 138.479C181.526 140.936 182.498 143.264 182.913 145.727C181.614 144.761 181.417 143.046 180.955 141.603C180.105 138.187 179.139 134.627 179.833 131.082Z" fill="#88A3CF" fill-opacity="0.5"/>
<path d="M162.908 147.619C165.587 148 168.069 149.164 170.687 149.838C173.162 150.648 175.896 150.954 178.065 152.512C175.399 152.261 172.89 151.294 170.32 150.607C167.77 149.838 165.07 149.253 162.908 147.619Z" fill="#88A3CF" fill-opacity="0.5"/>
<path d="M188.754 155.085C190.305 156.97 192.284 158.549 193.712 160.475C191.318 159.978 189.366 157.467 188.754 155.085Z" fill="#88A3CF" fill-opacity="0.5"/>
<path d="M53.7948 168.002C52.7544 166.083 53.2576 163.851 54.3864 162.095C54.3184 164.068 54.0872 166.042 53.7948 168.002Z" fill="#88A3CF" fill-opacity="0.5"/>
<path d="M210.922 172.106C212.5 169.581 214.329 167.158 216.539 165.144C215.295 168.036 213.2 170.547 210.99 172.759C210.977 172.596 210.943 172.269 210.922 172.106Z" fill="#88A3CF" fill-opacity="0.5"/>
<path d="M138.387 165.742C139.468 169.064 139.271 173.004 137.612 176.094C137.924 172.643 138.183 169.2 138.387 165.742Z" fill="#88A3CF" fill-opacity="0.5"/>
<path d="M42.2008 172.147C42.4116 172.038 42.8332 171.813 43.0372 171.697C42.9964 173.814 43.1664 175.93 43.044 178.047C41.9968 176.257 42.2824 174.127 42.2008 172.147Z" fill="#88A3CF" fill-opacity="0.5"/>
<path d="M84.8096 185.574C86.0812 183.226 87.1284 180.653 89.1684 178.85C88.2504 181.457 86.632 183.73 85.4284 186.207C84.2656 188.337 83.3884 190.739 81.4912 192.352C82.3276 189.97 83.6876 187.82 84.8096 185.574Z" fill="#88A3CF" fill-opacity="0.5"/>
<path d="M37.468 181.77C38.1004 183.171 38.3044 184.703 38.5356 186.214C38.2908 186.248 37.8012 186.302 37.5564 186.336C37.4816 184.812 37.4 183.287 37.468 181.77Z" fill="#88A3CF" fill-opacity="0.5"/>
<path d="M51.1836 188.33C50.8776 186.459 50.4288 184.519 51 182.654C51.51 184.485 51.7548 186.37 52.054 188.248C51.8364 188.269 51.4012 188.31 51.1836 188.33Z" fill="#88A3CF" fill-opacity="0.5"/>
<path d="M96.0092 190.038C98.7088 187.895 101.204 185.424 104.298 183.839C102.626 186.302 99.9056 187.704 97.7296 189.664C95.0096 191.76 92.7792 194.394 90.1204 196.565C91.2696 193.768 93.84 191.998 96.0092 190.038Z" fill="#88A3CF" fill-opacity="0.5"/>
<path d="M39.576 193.38C39.7936 193.393 40.2288 193.414 40.4464 193.428C40.1676 195.183 39.9636 196.953 39.814 198.729C39.6032 198.688 39.1816 198.607 38.9708 198.559C39.1272 196.83 39.3108 195.095 39.576 193.38Z" fill="#88A3CF" fill-opacity="0.5"/>
<path d="M53.1964 199.716C52.4416 197.729 52.4484 195.524 53.2576 193.564C53.6316 195.598 53.584 197.688 53.1964 199.716Z" fill="#88A3CF" fill-opacity="0.5"/>
<path d="M92.4868 206.038C94.4656 202.452 96.0568 198.675 97.9608 195.054C97.8452 197.341 96.8116 199.403 95.8528 201.424C95.0028 203.132 94.1528 204.963 92.4868 206.038Z" fill="#88A3CF" fill-opacity="0.5"/>
<path d="M127.99 203.091C129.016 200.206 129.968 197.021 132.321 194.932C131.138 197.756 130.111 200.805 127.99 203.091Z" fill="#88A3CF" fill-opacity="0.5"/>
<path d="M79.9272 216.253C80.1244 213.388 80.1924 210.21 82.1236 207.896C81.4232 210.673 81.43 213.756 79.9272 216.253Z" fill="#88A3CF" fill-opacity="0.5"/>
<path d="M93.194 207.522C94.6424 209.284 95.1592 211.687 94.5676 213.892C93.9284 211.809 93.4524 209.679 93.194 207.522Z" fill="#88A3CF" fill-opacity="0.5"/>
</svg>
