<svg xmlns="http://www.w3.org/2000/svg" width="255" height="245" fill="none" viewBox="0 0 255 245"><path fill="#88a3cf" fill-opacity=".5" d="M126.963 20.88c3.631-1.681 7.595.694 10.383 2.94 3.264 2.701 2.714 7.594.225 10.616 1.911 2.191 5.005 3.199 6.283 5.955 1.292 2.675.585 5.69-.401 8.33 1.822 1.456 3.549 3.07 4.773 5.07 8.466 13.36 16.898 26.74 25.351 40.105 3.781 5.846 7.167 12.032 11.995 17.096 2.509 1.742 5.114 3.416 7.133 5.757 2.455 2.525 3.489 5.976 5.372 8.888 3.992 6.466 8.079 12.876 12.145 19.301 1.666 2.511 1.782 5.669 3.38 8.214 3.08 5.465 5.977 11.052 9.384 16.334 6.031 7.554 8.608 17.047 12.45 25.772 1.211 3.267 2.455 6.717 1.87 10.263-1.094 2.92-5.487 3.825-7.588 1.49-3.672-4.246-5.372-9.704-7.65-14.727-4.373-6.703-7.909-14.217-13.981-19.593-.694.701-1.415 1.375-2.006 2.157 1.768 6.459 4.753 12.55 5.95 19.172.415 3.892 1.108 7.744 1.754 11.603 1.204 4.607 2.693 9.249 2.598 14.067.061 3.192-3.142 6.016-6.29 5.662-2.217-.095-3.788-2.116-4.393-4.097-1.748-5.58-2.441-11.426-3.869-17.088h-63.825c-2.251-.136-4.264.98-6.202 1.96-3.372 1.762-7.221 2.402-10.519 4.335-4.665 2.634-9.697 4.655-14.022 7.86-3.903 2.722-8.799 3.199-13.423 2.865-5.65-.245-11.342.994-16.952-.047-2.312-1.498-3.666-4.016-5.644-5.887-2.108-2.532-5.8-2.641-8.18-4.798-1.238-1.436-.137-3.389.271-4.941-7.004.606-13.756-1.626-20.536-3.035-5.535-1.627-11.54-1.885-16.714-4.621-3.006-1.579-3.237-5.547-1.789-8.289-2.563-.756-5.304-2.307-5.97-5.104-.51-2.097.55-4.233 2.326-5.356 1.42-.586 2.978-.606 4.48-.695-.23-2.409-.128-5.383 2.326-6.655 3.768-1.28 7.78-1.532 11.676-2.253.007-1.314.088-2.613.231-3.913 1.04-1.096 2.21-2.124 2.89-3.498q12.383-23.369 24.827-46.707c1.66-2.845 2.502-6.057 3.808-9.058 2.407-5.662 4.91-11.29 7.868-16.687 1.713-3.199 5.025-5.458 5.868-9.12 1.673-8.459 3.482-16.898 5.039-25.37.326-3.758-.497-7.705 1.163-11.244 1.054-2.797 3.264-4.981 5.725-6.58 4.311-2.825 7.637-6.813 11.479-10.189 2.318-2.177 4.95-4.423 8.248-4.743 1.034.245 1.958.796 2.91 1.252 2.55-1.041 5.182-1.837 7.773-2.77m-6.664 3.66a275 275 0 0 0 2.679 2.266c1.346-1.02 2.768-1.98 4.406-2.449-1.115 1.137-2.393 2.096-3.658 3.063 2.305 1.783 4.631 3.743 7.534 4.45 2.068.463 4.135 1.552 6.297 1.028-1.659-1.824-3.549-3.444-5.086-5.376 2.278.796 3.679 2.851 5.46 4.348.265-1.49.966-3.096.245-4.573-1.306-3.41-5.018-4.988-8.303-5.798-3.291.53-6.385 2.048-9.574 3.042m-18.693 10.407c-2.931 2.994-7.33 4.546-9.194 8.513-1.768 3.158-1.285 6.86-1.367 10.318-.639 5.975-2.257 11.78-3.332 17.673-.687 3.376-1.163 6.793-2.08 10.114-1.157 3.654-4.495 5.982-6.168 9.357a188 188 0 0 0-8.88 19.66c-1.334 3.915-3.55 7.426-5.414 11.095-7.269 13.638-14.531 27.29-21.773 40.942 7.554-2.178 15.388-3.464 23.249-3.743 5.229-.388 10.54-.17 15.674-1.395 2.55-.627 5.188-.844 7.738-1.464 1.136-1.408 1.843-3.096 2.707-4.675 5.086-9.644 10.268-19.239 15.334-28.89 2.448-6.465 4.481-13.094 7.18-19.464.544-1.476 1.809-2.47 2.972-3.45-3.611-1.51-7.296-3.58-9.493-6.928 3.366 2.253 6.474 4.92 10.214 6.595 3.753-2.056 7.446-4.254 10.921-6.765 4.841-3.927 6.392-10.413 10.778-14.72-3.176 1.231-6.549 2.837-10.03 2.252-2.931-.721-3.564-4.076-3.897-6.628-3.087-1.123-5.644-3.233-8.065-5.39.259 3 .789 6.002.674 9.024-.041.673-.742 2.606-1.306 1.17-.041-4.294-.816-8.548-.728-12.849-.231-3.852-2.815-6.955-4.46-10.283.496-2.178.666-4.423-.504-6.431-.768.224-1.53.442-2.298.667-1.958 2.702-5.692 2.205-8.616 2.307a39 39 0 0 1-.122-.892 19.2 19.2 0 0 0 8.194-1.11c-1.516-.455-3.06-.863-4.461-1.626 2.081.089 4.148.375 6.229.382l-.381-2.661c.782-.797 1.707-1.43 2.591-2.117-1.095-2.17-1.666-4.723-.612-7.023.231 2.184.347 4.41 1.183 6.479q.849-.653 1.707-1.293c-1.19-1.736-1.476-3.852-.952-5.874.53 1.715.823 3.492 1.251 5.234 4.672 1.443 9.5 3.56 14.491 2.416 3.679-.68 6.508-3.852 7.092-7.513-1.496 1.3-2.672 3.266-4.719 3.743-1.7.068-3.318-1-4.365-2.28-1.197-1.477-.49-3.471-.551-5.18-4.06-2.538-7.473-5.934-11.39-8.656-1.19 1.565-1.809 3.437-2.047 5.376l-.816-.204a29.7 29.7 0 0 1 1.448-5.063c-5.487 2.43-9.132 7.445-13.606 11.25m27.383-2.253c-.673 2.13-.156 4.784 2.149 5.628 2.502 1.524 4.338-1.558 5.726-3.205-2.537-1.082-5.23-1.688-7.875-2.423m10.091 4.587c-1.115 2.123-2.189 4.43-4.236 5.825-2.026 1.518-4.583 1.967-7.045 2.158-1.428 1.374-2.645 3.13-4.515 3.913-2.965.871-6.106.544-9.119.17.619 2.225 1.68 4.315 2.088 6.602-.707-.892-1.401-1.79-2.095-2.689.068.456.218 1.382.286 1.838 2.156 1.783 4.474 3.355 6.65 5.118l.816-.96c-1.577-1.844-1.883-4.505-.707-6.622.163 1.47.068 2.974.367 4.437.687 1.41 1.775 2.573 2.612 3.9l-2.224-1.518c.129.395.388 1.191.51 1.586 1.367.061 2.897.463 4.012-.599 4.719-3.41 9.37-6.935 13.94-10.548 2.611-1.831 3.577-5.547 2.489-8.487-.639-1.858-2.373-2.954-3.829-4.124m-25.391 7.894a91 91 0 0 1 1.741 3.001c2.489.028 5.059.368 7.48-.36 1.142-.68 2.054-1.668 3.026-2.56-3.108-.448-6.045-1.544-9.044-2.401-1.258.456-2.162 1.517-3.203 2.32m-1.271.933c-.51.85.795 2.062 1.577 1.402.483-.837-.802-2.11-1.577-1.402m13.287 16.408c-3.631.823-6.651-2.15-9.398-4.097.667 1.531 1.68 2.817 3.196 3.56l-1.265.156c.347 1.381.32 2.906.918 4.206 2.367 2.47 5.155 4.655 8.419 5.791-1.693-1.967-3.645-3.818-4.645-6.275 1.966 1.572 3.468 3.635 4.808 5.744 4.984-2.504 9.853-5.247 14.661-8.071 1.489-.96 3.352-1.797 3.869-3.668-1.516-1.314-2.958-2.797-3.645-4.737 1.585 1.218 2.754 2.845 3.965 4.417.224-1.457.659-2.906.584-4.39-.544-2.389-2.699-3.852-4.44-5.356-5.569 4.37-11.036 8.95-17.027 12.72m22.943-5.785c-.449 1.77-1 3.512-1.72 5.186 1.271 1.667 2.713 3.369 3.06 5.512.516 2.634-.728 5.465-2.965 6.922-3.183 1.94-5.916 4.593-8.051 7.642-2.367 4.186-4.74 8.5-8.337 11.788 5.474 8.82 10.907 17.667 16.354 26.507 1.02 1.674 2.339 3.131 3.597 4.621 2.604-3.947 6.474-6.765 10.343-9.364 2.162-1.409 4.325-2.886 6.793-3.696-1.748 2.062-4.413 2.947-6.555 4.526-3.652 2.593-7.664 5.145-9.806 9.228 1.109 1.219 2.231 2.43 3.339 3.655 2.38-2.797 5.392-5.274 9.058-6.077-2.782 2.218-6.236 3.6-8.405 6.56.972 6.656 1.625 13.4 3.339 19.92 3.876 2.661 8.391 4.124 13.022 4.757-4.366 1.171-8.555-1.416-12.322-3.287 1.68 3.757 3.536 7.452 5.998 10.76 1.904 2.538 3.508 5.281 4.841 8.159.435-.02 1.306-.068 1.741-.095.36-3.58.388-7.187.68-10.773.088-1.681.734-3.566 2.353-4.349 1.693-.966 3.604-.041 5.317.381q.867-1.755 1.775-3.511c-4.284-2.335-8.942-4.274-12.627-7.514 4.324 1.538 7.962 4.485 12.144 6.343-4.977-5.41-10.077-10.984-12.94-17.865-1.204-2.967-1.958-6.533-.333-9.493.034 2.763-.34 5.628.755 8.248 2.822 7.398 8.234 13.4 13.668 18.994.938-1.749 2.223-3.396 2.543-5.396.646-4.39-.102-9.065 1.707-13.23.265.081.788.251 1.047.333-.422 2.47-.979 4.927-.966 7.445-.224 3.09.034 6.466-1.734 9.174-1.741 2.927-3.277 5.962-4.658 9.072-1.7 3.92-3.434 7.963-3.386 12.318.292.068.877.191 1.169.259-.952-2.607 1.197-4.975 3.258-6.241 3.515-.388 7.609 2.715 6.643 6.615-.476-.735-.823-1.545-1.122-2.362-.585-2.157-2.965-3.287-5.018-3.484-1.687.769-2.503 2.532-3.461 3.988 2.148 2.123 4.821 3.58 7.616 4.669.197-.899.36-1.811.489-2.723.265-.081.803-.245 1.075-.333l-.041 2.096c1.129-2.552 1.788-5.369 3.597-7.568 1.741-2.246 3.427-4.559 4.447-7.234-2.162-1.429-4.325-2.926-6.133-4.798 2.475.681 4.345 2.505 6.099 4.274.143-4.24-.571-8.834 1.7-12.672 1.299-2.722 3.597-5.676 2.373-8.834-1.652-4.593-3.345-9.173-5.29-13.645-1.544-3.62-4.474-6.445-7.698-8.595-3.576-1.981-5.589-5.69-8.051-8.793-10.132-15.993-20.271-31.98-30.321-48.02M128.126 72.97c.353 1.634.326 3.525 1.536 4.825 1.054 1.144 2.775 1.082 4.155.728 4.645-1.068 9.037-3.082 13.043-5.635-.844-1.197-1.694-2.388-2.306-3.722 1.143.932 2.149 2.014 3.19 3.055 1.047-2.429-1.136-4.437-1.707-6.669 1.115 1.089 2.013 2.375 2.978 3.587-.442-2.24-1.387-4.39-2.978-6.057-5.957 3.307-11.744 6.962-17.911 9.888m-6.624 26.188c-1.679.994-3.658 1.803-4.705 3.546-3.944 8.112-5.529 17.238-10.125 25.051-4.985 9.364-9.99 18.722-14.926 28.114 3.882-.055 7.697-.953 11.587-.831 10.825-.578 20.862 4.09 30.967 7.235 2.353.694 4.644 1.864 7.16 1.735 7.746-.027 15.491-.109 23.222-.538-3.583-6.179-7.711-12.44-8.52-19.729-.524-4.41-1.442-8.759-1.938-13.175-3.114-3.601-6.786-6.799-9.119-11.012-5.202-8.398-10.288-16.864-15.599-25.187-2.713 1.517-5.236 3.362-8.004 4.79m77.874 30.931c.843 2.457 2.115 4.832 2.421 7.439-.184 3.845-2.788 6.921-4.135 10.392 1.687-.075 3.373-.164 5.06-.014-1.626.756-3.434.79-5.182.919a415 415 0 0 1-.34 4.002c2.271-.361 4.454.483 6.576 1.184 1.978.701 4.1 1.395 5.46 3.103-4.019-1.579-7.983-3.464-12.328-3.94 2.053 2.987 6.609 2.865 8.704 6.016-2.754-1.171-5.277-2.825-8.079-3.9-.163 2.069-.625 4.104-1.469 6.009 1.639 1.784 3.298 3.621 4.366 5.826-1.986-1.334-3.264-3.416-4.821-5.186-1.789 2.362-3.638 4.696-5.039 7.323 1.693 1.375 2.802 3.253 3.38 5.342.802.844 1.598 1.715 2.386 2.58 1.252-.198 2.516-.354 3.795-.402a38 38 0 0 1-3.325 1.409c.353.755.714 1.504 1.067 2.259 2.339-.844 4.624-1.851 7.045-2.436-1.816 1.858-4.481 2.3-6.82 3.171.306 3.818.918 7.595 1.931 11.291 2.176-1.164 4.386-2.464 6.929-2.566-2.122 1.368-4.536 2.157-6.739 3.369l.544 2.014c2.149-.599 4.298-1.381 6.569-1.218-1.999 1.021-4.223 1.45-6.392 1.94 1.115 4.239 2.434 8.432 3.182 12.76 2.72-1.239 5.644-2.225 8.67-2.117-1.149-5.056-1.632-10.235-2.577-15.326-1.686.722-3.4 1.45-5.249 1.579 1.523-1.068 3.27-1.715 5.025-2.293-1.564-5.526-4.005-10.773-5.311-16.374 1.224-.858 2.305-2.974 4.019-2.478 3.821 2.763 6.256 6.928 8.86 10.774 2.292-1.484 4.842-4.383 7.773-2.832.312-.122.945-.353 1.258-.476-1.823 2.688-4.658 4.383-7.426 5.941 1.7 2.893 3.638 5.649 5.161 8.657 2.679-.585 5.195-1.742 7.888-2.259-2.217 1.823-5.073 2.429-7.799 3.035 1.57 3.899 3.291 7.819 5.888 11.168 1.517 2.3 6.046 1.327 5.944-1.647-.272-6.159-3.489-11.638-5.638-17.279-2.203-6.098-5.004-12.06-9.023-17.178-3.366-5.39-6.345-11.004-9.418-16.564-1.462-2.464-1.564-5.479-3.217-7.854-3.223-5.036-6.432-10.079-9.574-15.163M80.981 159.209c-4.814.858-9.717.851-14.586.98.082 2.573-.007 5.206-.823 7.663-.448-2.531-.013-5.084.36-7.595-7.928.558-15.925 1.606-23.46 4.233-1.998.694-2.27 2.94-2.25 4.764 5.61.354 11.274.681 16.83-.374 6.168-1.082 12.41.891 18.557-.055 1.707-1.578 1.789-4.382 3.672-5.907-.544 2.096-1.516 4.036-2.332 6.037-.599.435-1.19.878-1.782 1.327-1.897.177-3.801.197-5.705.129-.422.388-.83.79-1.244 1.191l1 .245c-.191 1.103-.293 2.225-.545 3.314-.469-1.599-.693-3.266-.49-4.927-3.277-.02-6.541-.395-9.819-.299-.088 2.048-.292 4.083-.394 6.132-.19.204-.571.605-.762.809.028-2.252.068-4.505.225-6.751-6.399 1.681-13.002.32-19.489.865-3.19.435-6.42.857-9.506 1.783-2.387.803-2.292 3.756-1.89 5.778 8.58.449 17.183.592 25.771.823 4.767.191 9.588.572 14.314-.299 1.612-.259 3.278-.62 4.89-.143-.266 1.633-2.068 1.442-3.285 1.803-.136 1.368-.272 2.75-.673 4.077-.279-1.43-.157-2.886-.007-4.315-8.405 1.45-16.912-.177-25.37.197-6.155.381-12.309-.272-18.415-.932-2.278-.402-4.556 1.633-4.318 3.94.503 2.906 3.59 4.683 6.378 4.587 3.7-.122 7.29.871 10.914 1.463 5.311.892 10.71.729 16.069 1.117 5.616.456 11.2-.79 16.823-.504-.102 2.593.714 4.995 1.57 7.404-1.38-1.252-1.951-3.062-2.55-4.77-8.867.177-17.707-.735-26.56-.994-5.393-.531-10.737-1.885-16.157-2.028-2.217 1.838-1.564 5.696.972 6.908 3.706 1.905 7.902 2.422 11.914 3.348 5.664 1.348 11.329 2.702 17.054 3.757 3.577.639 7.242.252 10.751-.586 4.189-.401 8.269 1.055 12.39 1.573-1.986-1.178-4.318-1.811-5.998-3.458 2.02.518 3.951 1.341 5.773 2.355 1.449.823 2.598 2.212 4.284 2.613 2.639.572 5.366.143 8.038.463.272.266.823.796 1.095 1.062-3.625.435-7.46.619-10.928-.708-3.624-1.245-7.419-1.885-11.206-2.43-1.483-.115-3.149-.51-4.495.341-1.251 1.027-2.054 2.756-1.673 4.389 1.918 1.334 4.182 2.001 6.236 3.076 3.033 1.852 4.501 5.424 7.446 7.364 6.541 1.041 13.137-.728 19.693-.034 4.596.143 8.751-2.103 12.321-4.778 6.175-3.219 12.159-6.968 18.863-9.017 2.258-.762 4.237-2.184 6.522-2.879 2.76-.789 5.664-.517 8.5-.551 19.271 0 38.542.014 57.82-.007-1.7-6.547-3.869-13.039-4.434-19.811-.19-2.062-1.122-3.954-2.244-5.648.048 3.008 1.109 6.179-.183 9.072-1.789 3.048-6.141 4.689-9.248 2.626-2.013-1.027-2.992-3.13-3.618-5.179-3.883 1.498-8.065-.918-9.948-4.335-.925-2.565-1.156-5.328-2.088-7.894-1.231-2.3-2.434-4.628-3.801-6.86-8.119.102-16.245.32-24.364.551-2.061.102-3.972-.803-5.91-1.341-1.944 5.316-2.502 11.134-5.011 16.225.727-5.642 2.767-11.018 4.189-16.504-9.813-3.076-19.489-7.506-29.961-7.561-7.977.266-15.919 1.389-23.712 3.09m92.419 12.999c.116 1.17-.51 2.137-1.428 2.81-.027-1.449 0-2.892.034-4.341l-.993.02c.626 2.736.993 5.546 1.931 8.201 1.571 2.926 5.202 4.947 8.446 3.477.014-2.028.02-4.056.082-6.077-2.081-.96-3.999-2.45-4.822-4.662-1.271-2.668-.387-5.621.286-8.316-1.748-1.736-2.224-4.131-2.536-6.472-.755 5.083-.755 10.235-1 15.36m2.047-14.619c.238 1.702.734 3.356 1.639 4.832.884-1.66 1.591-3.402 2.298-5.138-1.312.082-2.632.184-3.937.306m2.509 14.047c1.591 2.321 4.155 3.832 7.045 3.274-2.292-1.151-4.903-2.049-6.338-4.336-.245.348-.476.701-.707 1.062m4.944 4.927c-.055 2.865-.334 5.86.652 8.609.857 2.362 3.462 3.635 5.896 3.349l-.354-1.586a11.7 11.7 0 0 1-3.658.565l.068-.898c2.094.061 4.481-.667 5.936 1.279 1.483-1.47 2.666-3.355 2.217-5.547-.598-4.001.082-8.649-2.863-11.882-1.706 3.008-4.311 5.628-7.894 6.111m39.922 3.451c-1.652 1.014-3.345 2.001-4.773 3.328.177.258.537.789.714 1.055 1.951-.953 3.685-2.274 5.501-3.444q-.726-.48-1.442-.939m-18.625 29.359c1.231 4.451 1.374 9.337 3.686 13.407 2.285 3.076 7.221.381 7.344-2.981-.102-4.349-1.177-8.623-2.414-12.774-2.917.626-5.78 1.443-8.616 2.348"/><path fill="#88a3cf" fill-opacity=".5" d="M136.796 42.712c1.713 1.68 3.066 3.715 4.018 5.907-1.978-1.436-3.291-3.6-4.018-5.907M96.71 89.97c3.821 2.409 7.432 5.145 11.424 7.281 2.046 1.191 4.27 2.11 6.113 3.641-2.469-.428-4.583-1.837-6.732-3.028-3.108-1.838-6.243-3.662-9.133-5.84-.788-.482-1.19-1.313-1.672-2.055M87.557 91.031c2.482 1.456 4.495 3.573 6.895 5.159 2.326 1.776 5.127 2.953 7.126 5.158-2.883-.993-5.297-2.926-7.786-4.614-2.27-1.66-4.76-3.233-6.235-5.703M183.967 145.768c-.245-5.145-.707-10.821 1.816-15.503-.225 2.661-.986 5.261-1.054 7.949-.259 2.511.17 5.145-.762 7.554M179.833 131.082c.632 2.429.673 4.954 1.231 7.397.462 2.457 1.434 4.785 1.849 7.248-1.299-.966-1.496-2.681-1.958-4.124-.85-3.416-1.816-6.976-1.122-10.521M162.908 147.619c2.679.381 5.161 1.545 7.779 2.219 2.475.81 5.209 1.116 7.378 2.674-2.666-.251-5.175-1.218-7.745-1.905-2.55-.769-5.25-1.354-7.412-2.988M188.754 155.085c1.551 1.885 3.53 3.464 4.958 5.39-2.394-.497-4.346-3.008-4.958-5.39M53.795 168.002c-1.04-1.919-.537-4.151.591-5.907-.068 1.973-.299 3.947-.591 5.907M210.922 172.106c1.578-2.525 3.407-4.948 5.617-6.962-1.244 2.892-3.339 5.403-5.549 7.615-.013-.163-.047-.49-.068-.653M138.387 165.742c1.081 3.322.884 7.262-.775 10.352.312-3.451.571-6.894.775-10.352M42.2 172.147c.212-.109.633-.334.837-.45-.04 2.117.13 4.233.007 6.35-1.047-1.79-.762-3.92-.843-5.9M84.81 185.574c1.271-2.348 2.318-4.921 4.358-6.724-.918 2.607-2.536 4.88-3.74 7.357-1.162 2.13-2.04 4.532-3.937 6.145.837-2.382 2.197-4.532 3.319-6.778M37.468 181.77c.632 1.401.836 2.933 1.068 4.444-.245.034-.735.088-.98.122-.074-1.524-.156-3.049-.088-4.566M51.184 188.33c-.306-1.871-.755-3.811-.184-5.676.51 1.831.755 3.716 1.054 5.594ZM96.01 190.038c2.699-2.143 5.194-4.614 8.288-6.199-1.672 2.463-4.392 3.865-6.568 5.825-2.72 2.096-4.95 4.73-7.61 6.901 1.15-2.797 3.72-4.567 5.89-6.527"/><path fill="#88a3cf" fill-opacity=".5" d="M39.576 193.38c.218.013.653.034.87.048a73 73 0 0 0-.632 5.301c-.21-.041-.632-.122-.843-.17.156-1.729.34-3.464.605-5.179M53.196 199.716c-.754-1.987-.748-4.192.062-6.152.374 2.034.326 4.124-.062 6.152M92.487 206.038c1.979-3.586 3.57-7.363 5.474-10.984-.116 2.287-1.15 4.349-2.108 6.37-.85 1.708-1.7 3.539-3.366 4.614M127.99 203.091c1.026-2.885 1.978-6.07 4.331-8.159-1.183 2.824-2.21 5.873-4.331 8.159M79.927 216.253c.197-2.865.265-6.043 2.197-8.357-.7 2.777-.694 5.86-2.197 8.357M93.194 207.522a7.17 7.17 0 0 1 1.374 6.37 36.6 36.6 0 0 1-1.374-6.37"/></svg>