<svg xmlns="http://www.w3.org/2000/svg" width="308" height="219" fill="none" viewBox="0 0 308 219"><path fill="#009048" d="M28 44.16q-2.16-.08-2.16 2.4v2.56q0 2.72 2.4 2.72.96 0 2.4-.24 1.76-.32 2.96-.32 2 0 3.2 1.44t1.2 3.84q0 2.64-1.6 4.24t-4.16 1.6q-2.24 0-6.64-.4t-6.64-.4q-3.44 0-5.76.24l-3.92.4q-1.6.16-2.16.16-2.56 0-4.16-1.6-1.52-1.6-1.52-4.24 0-2.24 1.2-3.76 1.28-1.52 3.12-1.52.72 0 2 .32 1.28.24 1.84.24 2.16 0 2.16-5.44V24.24q0-2.56-.16-3.28-.4-2.08-2-2.08-.64 0-1.92.32-1.2.24-1.92.24-1.84 0-3.12-1.52-1.2-1.52-1.2-3.76 0-2.64 1.6-4.24 1.6-1.68 4.16-1.68h.24a.7.7 0 0 0 .32.08q1.92 0 5.84.4t5.92.4q3.84 0 8.4-.32 5.76-.4 6.56-.4 8.72 0 14.08 4.96Q54 18.24 54 26.24q0 8.32-5.6 13.2-5.52 4.88-15.12 4.88-.8 0-3.04-.08Zm-2.16-13.52q0 2.24.4 2.8.4.48 2.16.56l1.28.08q9.44.56 9.44-7.44 0-7.68-8.48-7.68-2.08 0-2.88.24-1.44.4-1.76 1.92-.16.8-.16 2.4Zm48.83-8.88q2.24 0 2.24 3.12v24.08q0 4.08 1.52 4.08.32 0 1.12-.16.88-.24 1.44-.24 3.36 0 3.36 4.16 0 5.52-4.72 5.52-.8 0-4.48-.4-2.24-.24-5.12-.24-1.44 0-4.24.32t-4.16.32q-2.16 0-3.52-1.44-1.36-1.52-1.36-3.84 0-4.56 3.84-4.56l2.08.48q.32.08.56.08 1.44 0 1.44-4.48V35.6q0-4.56-1.36-4.56-.24 0-1.44.4-.8.16-1.28.16-3.84 0-3.84-4.48 0-2.4 1.36-3.84 1.36-1.52 3.6-1.52.88 0 2.56.24 2.8.4 4.48.4 1.36 0 3.52-.32t2.4-.32m-4.56-3.04q-2.96 0-5.12-2.16t-2.16-5.12q0-3.04 2.08-5.12 2.16-2.16 5.2-2.16t5.12 2.16q2.16 2.08 2.16 5.12t-2.16 5.2q-2.08 2.08-5.12 2.08m55.621 19.84q0 3.36-.88 4.48-.8 1.12-3.28 1.12h-19.52q-1.44 0-1.84.32-.32.24-.32 1.36 0 3.36 2.16 5.6t5.44 2.24q3.36 0 6.88-3.68 2.4-2.56 5.28-2.56 2.4 0 3.84 1.36 1.52 1.36 1.52 3.44 0 4.64-5.12 7.92-5.04 3.2-12.32 3.2-9.52 0-15.2-5.76t-5.68-15.36q0-9.68 5.6-15.6 5.68-6 14.8-6 8.48 0 13.52 4.88 5.12 4.88 5.12 13.04m-25.44-4q0 .48.24.8t1.68.32h8.96q1.2 0 1.44-.24.32-.32.32-1.04 0-2.08-1.84-3.6-1.839-1.6-4.32-1.6-3.2 0-5.2 2.48-1.28 1.6-1.28 2.88m47.032-13.36q6.08 0 11.2 4.72v-5.76q0-2.88-2-2.88-.48 0-1.92.16a7 7 0 0 1-2.08.32q-1.52 0-2.56-1.28t-1.04-3.2q0-5.12 5.44-5.12 1.76 0 2.56.08 3.2.32 4.32.32 1.04 0 3.04-.16t2.96-.16q2 0 2.72.96.8.88.8 3.36v36.4q0 4.08 1.52 4.08.48 0 1.2-.24.48-.16 1.28-.16 3.44 0 3.44 4.08 0 2.48-1.2 4.08-1.2 1.52-3.2 1.52h-.48l-2.8-.48q-.96-.16-2.72-.16-2.08 0-3.44.16-2 .24-2.16.24-2.48 0-2.48-2.88v-2.96q-4.16 7.12-12.48 7.12-7.36 0-12.16-6-4.72-6.08-4.72-15.28 0-9.36 4.64-15.12 4.72-5.76 12.32-5.76m2.8 10.08q-2.96 0-4.88 2.8-1.84 2.8-2.08 7.6v1.04q0 4.88 1.84 7.68 1.92 2.8 5.12 2.8 3.52 0 5.68-3.04 2.24-3.04 2.24-8.08 0-4.88-2.16-7.84t-5.76-2.96m47.738-7.04v6.8q1.119-4.08 2.64-6 3.519-4.4 9.84-4.4 4.4 0 7.36 2.88 3.04 2.8 3.04 6.96 0 3.28-1.92 5.44-1.92 2.08-4.88 2.08-2.241 0-3.84-1.44-1.52-1.44-1.52-3.52 0-1.12 1.04-3.12h-.48q-5.361 0-7.2 5.68-1.44 4.56-1.44 10.48v3.04q0 2.88.48 3.68.32.48 1.12.48.72 0 2-.32t1.92-.32q1.76 0 2.96 1.28 1.28 1.2 1.28 2.96 0 2.32-1.6 3.92-1.52 1.52-3.76 1.52-1.2 0-4.48-.4-2.001-.24-5.04-.24-3.04 0-5.36.24-3.84.4-4.72.4-4.96 0-4.96-5.36 0-4.48 3.84-4.48.639 0 1.44.32.8.24 1.2.24 1.36 0 1.36-4.48V35.6q0-4.56-1.36-4.56-.32 0-1.28.32-.88.24-1.36.24-3.84 0-3.84-4.4 0-2.4 1.28-3.92t3.28-1.52q.8 0 2.24.32t2.72.32q.96 0 2.8-.32t2.72-.32q2.48 0 2.48 2.48m60.221 39.12q-6.56 0-8.8-5.28-5.6 5.28-13.28 5.28-6.32 0-10.08-3.28-3.76-3.36-3.76-8.88 0-8.4 7.28-10.88 3.12-1.04 7.2-1.76 5.68-.96 7.68-2.16 2.08-1.28 2.08-3.84 0-1.84-1.6-3.04-1.52-1.28-3.84-1.28-2.64 0-2.64 1.68 0 .56.08 1.12v.32q0 2.24-1.92 3.76-1.84 1.52-4.64 1.52-3.2 0-5.28-1.92t-2.08-4.8q0-4.32 4.56-6.8t12.56-2.48q8.64 0 12.88 2.64 4.56 2.88 4.56 10.72v16.56q0 2.56 1.28 2.56.64 0 1.2-.08.24-.08.56-.08 1.84 0 3.12 1.28t1.28 3.12q0 2.64-2.4 4.32-2.32 1.68-6 1.68m-11.6-17.12v-1.76q-.56.32-7.04 2-4.4 1.12-4.4 3.44 0 3.68 4.32 3.68 7.12 0 7.12-7.36M28 114.16q-2.16-.08-2.16 2.4v2.56q0 2.72 2.4 2.72.96 0 2.4-.24 1.76-.32 2.96-.32 2 0 3.2 1.44t1.2 3.84q0 2.64-1.6 4.24t-4.16 1.6q-2.24 0-6.64-.4t-6.64-.4q-3.44 0-5.76.24l-3.92.4q-1.6.16-2.16.16-2.56 0-4.16-1.6-1.52-1.6-1.52-4.24 0-2.24 1.2-3.76 1.28-1.52 3.12-1.52.72 0 2 .32 1.28.24 1.84.24 2.16 0 2.16-5.44V94.24q0-2.56-.16-3.28-.4-2.08-2-2.08-.64 0-1.92.32-1.2.24-1.92.24-1.84 0-3.12-1.52-1.2-1.52-1.2-3.76 0-2.64 1.6-4.24 1.6-1.68 4.16-1.68h.24a.7.7 0 0 0 .32.08q1.92 0 5.84.4t5.92.4q3.84 0 8.4-.32 5.76-.4 6.56-.4 8.72 0 14.08 4.96Q54 88.24 54 96.24q0 8.32-5.6 13.2-5.52 4.88-15.12 4.88-.8 0-3.04-.08Zm-2.16-13.52q0 2.24.4 2.8.4.48 2.16.56l1.28.08q9.44.56 9.44-7.44 0-7.68-8.48-7.68-2.08 0-2.88.24-1.44.4-1.76 1.92-.16.8-.16 2.4Zm66.773 32.72q-6.56 0-8.8-5.28-5.6 5.28-13.28 5.28-6.32 0-10.08-3.28-3.76-3.36-3.76-8.88 0-8.4 7.28-10.88 3.12-1.04 7.2-1.76 5.68-.96 7.68-2.16 2.08-1.28 2.08-3.84 0-1.84-1.6-3.04-1.52-1.28-3.84-1.28-2.64 0-2.64 1.68 0 .56.08 1.12v.32q0 2.24-1.92 3.76-1.84 1.52-4.64 1.52-3.2 0-5.28-1.92t-2.08-4.8q0-4.32 4.56-6.8t12.56-2.48q8.64 0 12.88 2.64 4.56 2.88 4.56 10.72v16.56q0 2.56 1.28 2.56.64 0 1.2-.08.24-.08.56-.08 1.84 0 3.12 1.28t1.28 3.12q0 2.64-2.4 4.32-2.319 1.68-6 1.68m-11.6-17.12v-1.76q-.56.32-7.04 2-4.4 1.12-4.4 3.44 0 3.68 4.32 3.68 7.12 0 7.12-7.36m37.681-21.6v2.4q4.96-6.4 12.4-6.4 7.28 0 11.6 5.68 4.32 5.6 4.32 15.12 0 9.84-4.4 15.6t-11.84 5.76q-2.96 0-5.36-1.12-1.52-.72-4.64-3.04v6.16q0 2.48 1.92 2.48.8 0 1.84-.24 1.44-.16 2.08-.16 3.68 0 3.68 4.16 0 4.8-4.96 4.8-1.44 0-4.4-.32-3.68-.4-7.28-.4-1.52 0-6.8.64-.96.08-1.44.08-2.08 0-3.44-1.52-1.36-1.44-1.36-3.76 0-4.48 3.92-4.48.639 0 1.2.24 1.44.32 1.36.32 1.44 0 1.44-4.56V105.6q0-4.56-1.36-4.56-.24 0-1.44.4-.8.16-1.28.16-3.84 0-3.84-4.48 0-2.32 1.28-3.84t3.28-1.52h.56l2.8.4q.56.16 2.32.16a27.4 27.4 0 0 0 4.32-.32q1.04-.16 1.52-.16 2 0 2 2.8m8.88 6.16q-3.12 0-4.88 2.88t-1.76 8q0 5.04 1.76 8t4.72 2.96q3.04 0 4.88-2.96t1.84-8q0-4.96-1.84-7.92-1.76-2.96-4.72-2.96m62.767 7.76q0 3.36-.88 4.48-.8 1.12-3.28 1.12h-19.52q-1.44 0-1.84.32-.32.24-.32 1.36 0 3.36 2.16 5.6t5.44 2.24q3.36 0 6.88-3.68 2.4-2.56 5.28-2.56 2.4 0 3.84 1.36 1.52 1.36 1.52 3.44 0 4.64-5.12 7.92-5.04 3.2-12.32 3.2-9.52 0-15.2-5.76t-5.68-15.36q0-9.68 5.6-15.6 5.68-6 14.8-6 8.48 0 13.52 4.88 5.12 4.88 5.12 13.04m-25.44-4q0 .48.24.8t1.68.32h8.96q1.2 0 1.44-.24.32-.32.32-1.04 0-2.08-1.84-3.6-1.84-1.6-4.32-1.6-3.2 0-5.2 2.48-1.28 1.6-1.28 2.88m46.392-26.4q2.24 0 2.24 2.96v37.84q0 4 1.6 4 .64 0 1.12-.16t1.28-.16q3.52 0 3.52 4.16 0 5.52-4.8 5.52-.08 0-6.08-.48a45 45 0 0 0-3.92-.16q-1.76 0-3.76.24-3.36.4-4.24.4-2.16 0-3.52-1.44-1.36-1.52-1.36-3.92 0-4.48 3.92-4.48.48 0 1.28.32.88.24 1.36.24 1.36 0 1.36-4.48V91.92q0-4.48-1.36-4.48-.561 0-1.44.32-.48.16-1.28.16-3.84 0-3.84-4.4 0-2.48 1.36-3.92t3.68-1.44q.64 0 2.72.24 2.72.32 4.08.32 1.84 0 3.2-.32 1.839-.24 2.88-.24M18 191.84q2.72 0 2.72-4.96v-23.04q0-5.36-3.92-5.36t-3.92 2.72q0 .8.24 2.48.32 1.6.32 2.4 0 7.12-6 7.12-2.8 0-4.4-1.76-1.6-1.84-1.6-4.88 0-1.04.32-3.76.24-2.08.24-3.84 0-.96-.24-3.92-.16-2-.16-3.2 0-3.52 3.52-3.52 1.84 0 4.64.24 6.4.56 17.92.56 11.6 0 18-.56 2.8-.24 4.56-.24 3.6 0 3.6 3.52 0 1.2-.24 3.6-.16 2.32-.16 3.52 0 1.28.24 3.84.32 3.36.32 3.84 0 3.04-1.68 4.8-1.6 1.76-4.32 1.76-6 0-6-6.88 0-.96.24-2.56t.24-2.4q0-2.88-3.52-2.88-2.32 0-3.28 1.2t-.96 4.16v23.04q0 4.96 2.72 4.96.88 0 2.56-.24 1.76-.32 2.64-.32 4.8 0 4.8 4.8 0 6.32-6 6.32-2.32 0-5.52-.32-4.8-.48-8.24-.48-3.52 0-8.24.48-3.12.32-5.52.32-6 0-6-5.84 0-5.28 4.88-5.28.88 0 2.56.32 1.76.24 2.64.24m56.67-30.08q2.24 0 2.24 3.12v24.08q0 4.08 1.52 4.08.32 0 1.12-.16.88-.24 1.44-.24 3.36 0 3.36 4.16 0 5.52-4.72 5.52-.8 0-4.48-.4-2.24-.24-5.12-.24-1.44 0-4.24.32t-4.16.32q-2.16 0-3.52-1.44-1.36-1.52-1.36-3.84 0-4.56 3.84-4.56l2.08.48q.32.08.56.08 1.44 0 1.44-4.48V175.6q0-4.56-1.36-4.56-.24 0-1.44.4-.8.16-1.28.16-3.84 0-3.84-4.48 0-2.4 1.36-3.84 1.36-1.52 3.6-1.52.88 0 2.56.24 2.8.4 4.48.4 1.36 0 3.52-.32t2.4-.32m-4.56-3.04q-2.96 0-5.12-2.16t-2.16-5.12q0-3.04 2.08-5.12 2.16-2.16 5.2-2.16t5.12 2.16q2.16 2.08 2.16 5.12t-2.16 5.2q-2.08 2.08-5.12 2.08m18.866 49.44q0 1.12-.56 2.08.639.16 1.44.16 2.72 0 3.76-2.4 1.12-2.4 1.12-8.56V175.6q0-4.56-1.44-4.56-.48 0-1.6.32-1.041.24-1.44.24-3.44 0-3.44-4.48 0-5.36 4.72-5.36 1.2 0 3.44.32 2.32.32 3.52.32t3.6-.32 2.64-.32q2.24 0 2.24 3.12v36.64q0 4.48-.8 6.96-.8 2.56-3.04 4.96-4.881 5.28-13.44 5.28-5.92 0-9.68-2.48-3.76-2.4-3.76-6.32 0-2.8 2-4.72t4.96-1.92q2.48 0 4.08 1.36 1.68 1.44 1.68 3.52m10.96-49.44q-3.04 0-5.2-2.08-2.16-2.16-2.16-5.2t2.16-5.12q2.16-2.16 5.2-2.16t5.12 2.16q2.16 2.08 2.16 5.12 0 2.96-2.16 5.12-2.08 2.16-5.12 2.16m53.53 19.84q0 3.36-.88 4.48-.8 1.12-3.28 1.12h-19.52q-1.44 0-1.84.32-.32.24-.32 1.36 0 3.36 2.16 5.6t5.44 2.24q3.36 0 6.88-3.68 2.4-2.56 5.28-2.56 2.4 0 3.84 1.36 1.52 1.36 1.52 3.44 0 4.64-5.12 7.92-5.04 3.2-12.32 3.2-9.52 0-15.2-5.76t-5.68-15.36q0-9.68 5.6-15.6 5.68-6 14.8-6 8.48 0 13.52 4.88 5.12 4.88 5.12 13.04m-25.44-4q0 .48.24.8t1.68.32h8.96q1.2 0 1.44-.24.32-.32.32-1.04 0-2.08-1.84-3.6-1.84-1.6-4.32-1.6-3.2 0-5.2 2.48-1.28 1.6-1.28 2.88m46.632-10.32v6.8q1.119-4.08 2.64-6 3.519-4.4 9.84-4.4 4.4 0 7.36 2.88 3.04 2.8 3.04 6.96 0 3.28-1.92 5.44-1.92 2.08-4.88 2.08-2.241 0-3.84-1.44-1.52-1.44-1.52-3.52 0-1.12 1.04-3.12h-.48q-5.361 0-7.2 5.68-1.44 4.56-1.44 10.48v3.04q0 2.88.48 3.68.32.48 1.12.48.72 0 2-.32t1.92-.32q1.76 0 2.96 1.28 1.28 1.2 1.28 2.96 0 2.32-1.6 3.92-1.52 1.52-3.76 1.52-1.2 0-4.48-.4-2.001-.24-5.04-.24-3.04 0-5.36.24-3.84.4-4.72.4-4.96 0-4.96-5.36 0-4.48 3.84-4.48.639 0 1.44.32.8.24 1.2.24 1.36 0 1.36-4.48V175.6q0-4.56-1.36-4.56-.32 0-1.28.32-.88.24-1.36.24-3.84 0-3.84-4.4 0-2.4 1.28-3.92t3.28-1.52q.8 0 2.24.32t2.72.32q.96 0 2.8-.32t2.72-.32q2.48 0 2.48 2.48m60.221 39.12q-6.56 0-8.8-5.28-5.6 5.28-13.28 5.28-6.321 0-10.08-3.28-3.76-3.36-3.76-8.88 0-8.4 7.28-10.88 3.12-1.04 7.2-1.76 5.679-.96 7.68-2.16 2.08-1.28 2.08-3.84 0-1.84-1.6-3.04-1.521-1.28-3.84-1.28-2.64 0-2.64 1.68 0 .56.08 1.12v.32q0 2.24-1.92 3.76-1.84 1.52-4.64 1.52-3.201 0-5.28-1.92-2.08-1.92-2.08-4.8 0-4.32 4.56-6.8t12.56-2.48q8.64 0 12.88 2.64 4.56 2.88 4.56 10.72v16.56q0 2.56 1.28 2.56a8.6 8.6 0 0 0 1.2-.08q.24-.08.56-.08 1.839 0 3.12 1.28 1.28 1.28 1.28 3.12 0 2.64-2.4 4.32-2.32 1.68-6 1.68m-11.6-17.12v-1.76q-.56.32-7.04 2-4.4 1.12-4.4 3.44 0 3.68 4.32 3.68 7.12 0 7.12-7.36"/><path fill="#91ccaf" d="M262.88 133.36q-9.92 0-15.36-5.6-5.36-5.6-5.36-15.76 0-10.08 5.36-15.68 5.36-5.68 15.04-5.68 9.52 0 14.96 5.6 5.52 5.6 5.52 15.36 0 10.24-5.36 16-5.28 5.76-14.8 5.76m-10.8-49.84q0-1.6 1.44-2.8.56-.4 2.88-1.68l7.44-4.08q2.32-1.28 4.4-1.28 1.92 0 3.36 1.68 1.52 1.6 1.52 3.84 0 2.88-5.28 4.96l-7.2 2.8q-3.28 1.28-4.96 1.28-2 0-3.12-2.48a5.3 5.3 0 0 1-.48-2.24m10.48 16.96q-3.52 0-5.6 3.12-2 3.04-2 8.4 0 5.44 2 8.48 2.08 3.04 5.76 3.04 7.44 0 7.44-11.52t-7.6-11.52"/></svg>